<svg width="15" height="18" viewBox="0 0 15 18" fill="none" xmlns="http://www.w3.org/2000/svg">
<path d="M6 18V13.74C5.53 13.91 5.03 14 4.5 14C2 14 0 12 0 9.5C0 8.23 0.5 7.09 1.36 6.27C1.13 5.73 1 5.13 1 4.5C1 2 3 0 5.5 0C7.06 0 8.44 0.8 9.25 2H9.5C10.2223 2 10.9375 2.14226 11.6048 2.41866C12.272 2.69506 12.8784 3.10019 13.3891 3.61091C13.8998 4.12164 14.3049 4.72795 14.5813 5.39524C14.8577 6.06253 15 6.77773 15 7.5C15 8.22227 14.8577 8.93747 14.5813 9.60476C14.3049 10.272 13.8998 10.8784 13.3891 11.3891C12.8784 11.8998 12.272 12.3049 11.6048 12.5813C10.9375 12.8577 10.2223 13 9.5 13C9 13 8.5 12.93 8 12.79V18H6Z" fill="black"/>
</svg>
